<svg aria-hidden="true" style="position: absolute; width: 0; height: 0; overflow: hidden;" version="1.1" xmlns="http://www.w3.org/2000/svg" xmlns:xlink="http://www.w3.org/1999/xlink">
<defs>
<symbol id="icon-unicorn" viewBox="0 0 32 32">
<path fill="#fff" style="fill: var(--color1, #fff)" d="M3.357 17.538c-1.167 1.355-1.965 2.358-2.045 2.642-0.44 1.558-0.335 3.642 0.875 4.705 0.75 0.657 2.402 1.2 4.013 0.7 0.8-0.247 2.347-1.995 2.532-1.957-0.805-2.775-2.665-5.35-5.375-6.090z"></path>
<path fill="#404040" style="fill: var(--color2, #404040)" d="M4.582 19.505c0.338 0.090 0.565 0.438 0.585 0.79 0.018 0.35-0.147 0.692-0.383 0.95-0.282 0.31-0.695 0.277-0.8-0.183-0.053-0.235 0.183-0.547 0.125-0.808-0.065-0.297-0.947-0.24-0.397-0.565 0.252-0.148 0.583-0.262 0.87-0.185z"></path>
<path fill="#000" style="fill: var(--color3, #000)" d="M7.14 10.738c-0.207 0-0.407-0.047-0.577-0.135-0.532-0.277-0.877-0.963-0.877-1.742 0-3.207 3.885-5.695 7.23-5.695 0.973 0 1.807 0.22 2.418 0.635 0.37 0.253 0.713 0.375 1.048 0.375 0.54 0 0.918-0.317 1.22-0.572 0.207-0.175 0.387-0.328 0.547-0.328 0.152 0 0.51 0.147 1.177 1.145 0.483 0.72 0.512 1.482 0.095 2.265-0.872 1.633-3.53 2.96-5.93 2.96-1.043 0-2.505-0.248-3.535-1.425-0.283-0.325-0.725-0.518-1.183-0.518-0.488 0-0.915 0.215-1.2 0.607-0.183 0.248-0.22 0.592-0.098 0.898 0.107 0.27 0.327 0.47 0.587 0.518 0.078 0.015 0.145 0.025 0.2 0.025 0.002 0 0.023 0 0.033 0 0.015 0 0.027-0.008 0.043-0.005 0.002 0.005 0.030 0.035 0.033 0.088 0.008 0.090-0.033 0.207-0.113 0.335-0.23 0.352-0.655 0.57-1.117 0.57z"></path>
<path fill="#d42da2" style="fill: var(--color4, #d42da2)" d="M12.912 3.54c0.897 0 1.66 0.197 2.205 0.57 0.432 0.295 0.845 0.44 1.26 0.44 0.677 0 1.13-0.383 1.462-0.663 0.095-0.080 0.235-0.198 0.308-0.232 0.070 0.030 0.34 0.192 0.863 0.972 0.405 0.603 0.427 1.218 0.075 1.88-0.813 1.523-3.325 2.762-5.598 2.762-0.965 0-2.315-0.225-3.252-1.295-0.355-0.405-0.9-0.645-1.465-0.645-0.603 0-1.15 0.277-1.502 0.762-0.258 0.352-0.313 0.832-0.143 1.258 0.138 0.348 0.412 0.605 0.745 0.707-0.168 0.19-0.442 0.307-0.728 0.307-0.147 0-0.287-0.033-0.405-0.092-0.405-0.21-0.678-0.777-0.678-1.41-0.003-3.25 4.058-5.322 6.853-5.322zM18.165 3.647v0 0zM12.912 2.79c-3.348 0-7.605 2.46-7.605 6.070 0 0.845 0.365 1.703 1.080 2.075 0.23 0.12 0.49 0.178 0.752 0.178 0.555 0 1.12-0.26 1.43-0.75 0.107-0.17 0.185-0.367 0.17-0.565s-0.14-0.387-0.325-0.43c-0.092-0.020-0.195-0.005-0.287-0.023-0.32-0.060-0.457-0.537-0.255-0.815 0.233-0.32 0.567-0.453 0.897-0.453 0.348 0 0.69 0.15 0.9 0.39 0.963 1.098 2.357 1.553 3.818 1.553 3.785 0 7.992-3.053 6.145-5.81-0.668-0.998-1.12-1.31-1.488-1.31-0.622 0-1 0.902-1.768 0.902-0.235 0-0.508-0.085-0.838-0.31-0.7-0.48-1.623-0.703-2.627-0.703v0z"></path>
<path fill="#000" style="fill: var(--color3, #000)" d="M17.985 7.013c0.218-1.68-1.145-4.185-2.047-5.513-0.277-0.407-0.887-0.302-1.043 0.167-0.375 1.14-0.953 2.922-0.98 4.438-1.97 2.010-7.543 7.935-10.555 11.433 2.71 0.74 4.567 3.315 5.375 6.090 0.75 0.142 2.85 0.43 4.918-0.323 2.477-0.902 3.242-2.6 3.242-2.6l2.758 10.38h11.348v-10.332c0 0-10.345-12.428-13.015-13.74z"></path>
<path fill="#a8a8a8" style="fill: var(--color5, #a8a8a8)" d="M15.623 1.88v0 0zM15.508 2.223c1.023 1.545 1.99 3.5 1.832 4.683-0.043 0.32 0.14 0.633 0.43 0.775 1.865 0.895 8.48 8.38 12.48 13.325v9.328h-9.962l-2.505-9.715c-0.080-0.313-0.352-0.543-0.675-0.565-0.017-0.003-0.038-0.003-0.055-0.003-0.3 0-0.575 0.177-0.69 0.457-0.023 0.052-0.607 1.313-2.748 2.078-0.842 0.302-1.79 0.455-2.815 0.455-0.825 0-1.49-0.102-1.815-0.163-0.045-0.008-0.098-0.012-0.145-0.012-0.373 0-0.59 0.198-1.235 0.78-0.397 0.36-1.228 1.113-1.563 1.212-0.355 0.108-0.732 0.163-1.12 0.163-0.995 0-1.857-0.358-2.27-0.715-0.94-0.81-1.050-2.573-0.675-3.907 0.048-0.090 0.343-0.578 1.932-2.387 3.14-3.578 8.602-9.455 10.545-11.398 0.137-0.138 0.215-0.322 0.22-0.515 0.025-1.31 0.515-2.91 0.832-3.875zM1.988 20.372v0 0zM15.45 1.23c-0.227 0-0.447 0.143-0.537 0.41-0.383 1.14-0.957 2.928-0.988 4.445-2.010 2.013-7.503 7.93-10.578 11.432-1.192 1.358-1.998 2.36-2.080 2.648-0.45 1.56-0.338 3.648 0.897 4.712 0.555 0.477 1.6 0.895 2.76 0.895 0.435 0 0.888-0.060 1.337-0.195 0.808-0.245 2.362-1.962 2.578-1.962 0.002 0 0.005 0 0.005 0 0.375 0.070 1.082 0.175 1.953 0.175 0.908 0 1.99-0.115 3.067-0.5 2.527-0.905 3.183-2.49 3.183-2.49l2.655 10.282h11.295v-10.345c0 0-10.178-12.422-12.902-13.738 0.223-1.683-1.253-4.18-2.172-5.51-0.117-0.175-0.3-0.26-0.473-0.26v0z"></path>
<path fill="#aff" style="fill: var(--color6, #aff)" d="M7.020 1.448c-0.090-0.15-0.095-0.32-0.013-0.468 0.085-0.152 0.255-0.252 0.43-0.252 0.13 0 0.253 0.052 0.348 0.15l0.938 0.975 0.005 0.067c0.027 0.41-0.005 0.833-0.035 1.242-0.010 0.12-0.018 0.24-0.025 0.357l-0.037 0.598-1.61-2.67z"></path>
<path fill="#999" style="fill: var(--color7, #999)" d="M7.438 0.915c0.072 0 0.147 0.027 0.213 0.095 0 0 0.35 0.365 0.887 0.925 0.033 0.512-0.027 1.047-0.063 1.578-0.74-1.232-1.298-2.16-1.298-2.16-0.13-0.22 0.055-0.438 0.26-0.438zM7.438 0.542c-0.242 0-0.475 0.135-0.593 0.347-0.115 0.205-0.11 0.45 0.015 0.655 0 0 0.555 0.928 1.297 2.158l0.617 1.025 0.075-1.195c0.008-0.118 0.018-0.237 0.025-0.355 0.030-0.415 0.063-0.845 0.035-1.268l-0.010-0.137-0.092-0.097-0.888-0.925c-0.133-0.135-0.303-0.208-0.482-0.208v0z"></path>
<path fill="#000" style="fill: var(--color3, #000)" d="M11.617 8.893c-0.065 0-0.125-0.033-0.16-0.090-0.425-0.695-1.045-1.72-1.69-2.787-0.018-0.030-0.027-0.063-0.027-0.098 0.002-0.37 0.020-0.752 0.037-1.123 0.020-0.442 0.043-0.897 0.037-1.335 0-0.078 0.045-0.145 0.115-0.175 0.023-0.010 0.047-0.015 0.070-0.015 0.050 0 0.098 0.020 0.135 0.058l1.813 1.885c0.033 0.032 0.050 0.077 0.053 0.125 0.020 0.69-0.045 1.41-0.105 2.105-0.040 0.442-0.078 0.86-0.095 1.272-0.002 0.082-0.060 0.152-0.14 0.172-0.012 0.002-0.027 0.005-0.043 0.005z"></path>
<path fill="#999" style="fill: var(--color7, #999)" d="M10.005 3.458c0.585 0.61 1.217 1.265 1.813 1.885 0.033 1.103-0.155 2.277-0.2 3.365-0.425-0.695-1.045-1.718-1.688-2.787 0.002-0.805 0.085-1.65 0.075-2.462zM10.005 3.085c-0.047 0-0.095 0.010-0.143 0.027-0.143 0.058-0.232 0.197-0.232 0.35 0.005 0.433-0.018 0.885-0.037 1.325-0.018 0.372-0.037 0.758-0.037 1.13 0 0.067 0.018 0.135 0.053 0.195 0.745 1.235 1.313 2.173 1.69 2.788 0.070 0.113 0.19 0.178 0.318 0.178 0.030 0 0.063-0.005 0.092-0.012 0.16-0.040 0.273-0.182 0.28-0.345 0.018-0.408 0.055-0.822 0.092-1.263 0.063-0.7 0.127-1.425 0.107-2.128-0.002-0.093-0.040-0.183-0.105-0.247l-1.813-1.885c-0.068-0.072-0.165-0.112-0.265-0.112v0z"></path>
<path fill="#000" style="fill: var(--color3, #000)" d="M12.6 9.938c-0.338 0-0.51-0.14-0.592-0.255-0.030-0.043-0.12-0.18-0.547-0.88l-0.030-0.047 0.002-0.057c0.018-0.42 0.057-0.862 0.095-1.29 0.060-0.685 0.125-1.393 0.105-2.063l-0.015-0.482 0.335 0.348c1.565 1.628 2.447 2.542 2.55 2.645 0.107 0.11 0.162 0.25 0.155 0.41-0.018 0.463-0.533 0.955-0.752 1.145-0.355 0.313-0.893 0.527-1.305 0.527v0z"></path>
<path fill="#999" style="fill: var(--color7, #999)" d="M11.818 5.343c1.3 1.353 2.432 2.525 2.553 2.647 0.297 0.3-0.098 0.863-0.585 1.283-0.322 0.277-0.813 0.48-1.185 0.48-0.193 0-0.352-0.053-0.443-0.178-0.047-0.068-0.248-0.39-0.54-0.867 0.045-1.088 0.232-2.263 0.2-3.365zM11.418 4.388l0.027 0.965c0.020 0.657-0.043 1.36-0.105 2.040-0.037 0.43-0.078 0.873-0.095 1.297l-0.005 0.113 0.060 0.098c0.425 0.697 0.52 0.842 0.555 0.893 0.11 0.152 0.328 0.332 0.745 0.332 0.46 0 1.035-0.23 1.43-0.57 0.297-0.255 0.797-0.762 0.818-1.28 0.008-0.213-0.065-0.402-0.21-0.55-0.102-0.103-0.96-0.992-2.547-2.643l-0.672-0.695z"></path>
<path fill="#000" style="fill: var(--color3, #000)" d="M9.77 6.015c-0.498-0.822-1.008-1.673-1.453-2.41l-0.030-0.050 0.002-0.058c0.008-0.12 0.018-0.243 0.025-0.362 0.030-0.397 0.060-0.808 0.035-1.19l-0.033-0.51 1.87 1.945v0.075c0.005 0.447-0.018 0.91-0.037 1.357-0.018 0.367-0.035 0.745-0.037 1.107l-0.002 0.665-0.34-0.57z"></path>
<path fill="#999" style="fill: var(--color7, #999)" d="M8.537 1.933c0.405 0.42 0.915 0.953 1.465 1.525 0.010 0.812-0.072 1.658-0.075 2.462-0.498-0.822-1.008-1.673-1.453-2.41 0.035-0.527 0.098-1.063 0.063-1.577zM8.1 0.94l0.065 1.018c0.025 0.37-0.005 0.757-0.035 1.165-0.010 0.123-0.018 0.243-0.025 0.365l-0.008 0.118 0.060 0.1c0.445 0.737 0.955 1.588 1.453 2.41l0.685 1.135 0.008-1.327c0.002-0.357 0.020-0.735 0.037-1.1 0.023-0.45 0.045-0.915 0.037-1.37l-0.002-0.147-0.102-0.107-1.465-1.525-0.707-0.733z"></path>
<path fill="#000" style="fill: var(--color3, #000)" d="M30.76 27.067c-1.163 0-2.457-0.363-3.85-1.075-3.087-1.58-3.33-4.867-3.543-7.767-0.145-1.985-0.273-3.697-1.385-4.402-2.262-1.433-3.672-4.258-3.68-6.058-0.003-0.542 0.117-1.268 0.707-1.647 0.385-0.247 0.79-0.36 1.315-0.36 0.282 0 0.573 0.030 0.92 0.075l0.090 0.013c0.295 0.040 0.663 0.088 1.035 0.088 0.72 0 1.238-0.185 1.58-0.57 0.212-0.237 0.305-0.51 0.337-0.763 0.087 0.055 0.175 0.128 0.26 0.218 0.29 0.31 0.488 0.76 0.468 1.070-0.027 0.423-0.267 0.77-0.715 1.035-0.137 0.082-0.207 0.24-0.177 0.397 0.032 0.157 0.16 0.275 0.317 0.298 0.282 0.037 0.56 0.053 0.83 0.067 0.517 0.027 1.005 0.055 1.483 0.235 0.777 0.295 1.385 0.88 1.67 1.61 0.323 0.825 0.18 1.857-0.325 2.35-0.135 0.133-0.15 0.342-0.038 0.492 0.073 0.098 0.185 0.15 0.3 0.15 0.063 0 0.128-0.015 0.185-0.047 0.332-0.19 0.715-0.29 1.1-0.29 0.677 0 1.345 0.305 1.828 0.835 0.817 0.895 1.14 2.415 0.783 3.692-0.030 0.113-0.010 0.233 0.060 0.325s0.178 0.148 0.295 0.15c1.41 0.025 2.797 0.738 3.807 1.953 0.303 0.363 0.273 2.348-0.675 4.367-0.627 1.332-2.102 3.56-4.983 3.56z"></path>
<path fill="#d42da2" style="fill: var(--color4, #d42da2)" d="M24.445 5.308c0.133 0.21 0.2 0.43 0.192 0.563-0.012 0.188-0.080 0.47-0.532 0.737-0.275 0.162-0.418 0.482-0.352 0.795s0.32 0.553 0.637 0.593c0.297 0.040 0.582 0.055 0.858 0.070 0.508 0.027 0.945 0.050 1.367 0.21 0.677 0.258 1.207 0.765 1.453 1.395 0.262 0.672 0.152 1.563-0.24 1.945-0.27 0.262-0.3 0.685-0.075 0.988 0.145 0.195 0.37 0.3 0.6 0.3 0.125 0 0.253-0.033 0.37-0.098 0.277-0.158 0.595-0.24 0.915-0.24 0.573 0 1.137 0.26 1.552 0.713 0.723 0.793 1.017 2.197 0.698 3.34-0.063 0.223-0.017 0.462 0.12 0.65 0.14 0.185 0.355 0.297 0.587 0.302 1.295 0.023 2.575 0.68 3.515 1.805 0.197 0.375 0.145 2.56-1.040 4.602-0.72 1.24-2.053 2.718-4.315 2.718-1.102 0-2.34-0.348-3.677-1.032-2.895-1.488-3.13-4.662-3.337-7.465-0.155-2.085-0.288-3.885-1.56-4.69-2.155-1.365-3.497-4.043-3.505-5.742-0.003-0.447 0.090-1.043 0.535-1.33 0.32-0.207 0.663-0.3 1.113-0.3 0.262 0 0.538 0.030 0.87 0.072l0.090 0.013c0.305 0.040 0.688 0.093 1.082 0.093 0.823 0 1.448-0.232 1.86-0.695 0.090-0.103 0.163-0.205 0.22-0.31zM23.977 4.128c-0.020 0-0.040 0-0.060 0.003 0.030 0.36-0.005 0.715-0.25 0.987-0.31 0.348-0.802 0.442-1.3 0.442-0.383 0-0.77-0.058-1.075-0.098-0.332-0.043-0.652-0.080-0.968-0.080-0.52 0-1.023 0.098-1.52 0.418-2.067 1.335-0.247 6.297 2.975 8.338 2.398 1.515-0.48 9.402 4.957 12.188 1.535 0.785 2.867 1.115 4.020 1.115 5.487 0 6.833-7.465 5.943-8.537-1.078-1.297-2.575-2.063-4.090-2.087 0.39-1.398 0.035-3.060-0.867-4.045-0.57-0.625-1.34-0.957-2.105-0.957-0.442 0-0.883 0.11-1.285 0.338 0.645-0.63 0.767-1.845 0.413-2.755s-1.098-1.525-1.885-1.825c-0.795-0.303-1.582-0.215-2.395-0.322 0.475-0.28 0.858-0.708 0.898-1.335 0.050-0.725-0.683-1.785-1.405-1.785v0z"></path>
<path fill="#404040" style="fill: var(--color2, #404040)" d="M11.050 13.49c0.002 0 0.015 0.005 0.023 0.005 0.020 0.005 0.047 0.010 0.082 0.018 0.072 0.015 0.182 0.035 0.313 0.045 0.065 0.005 0.135 0.005 0.21 0.005 0.072 0 0.15-0.010 0.23-0.018 0.080-0.010 0.158-0.030 0.24-0.047 0.080-0.023 0.162-0.047 0.24-0.080l0.030-0.012h0.002c-0.012 0.005 0.027-0.012-0.025 0.012l0.015-0.008 0.018-0.008 0.072-0.035c0.030-0.012 0.033-0.020 0.043-0.025 0.010-0.008 0.018-0.012 0.027-0.018 0.053-0.040 0.11-0.085 0.162-0.137 0.105-0.107 0.197-0.232 0.273-0.348s0.133-0.22 0.172-0.29c0.040-0.072 0.060-0.113 0.057-0.105 0.047-0.18 0.23-0.29 0.41-0.242s0.29 0.23 0.242 0.41c-0.002 0.005-0.008 0.070-0.030 0.175s-0.060 0.25-0.133 0.422c-0.070 0.17-0.175 0.367-0.335 0.563-0.082 0.098-0.175 0.193-0.293 0.28l-0.105 0.070c-0.035 0.023-0.075 0.047-0.095 0.055l-0.072 0.037-0.018 0.010-0.010 0.005-0.037 0.018-0.045 0.018c-0.12 0.047-0.242 0.082-0.367 0.113-0.125 0.025-0.25 0.040-0.373 0.047-0.242 0.012-0.47-0.018-0.655-0.068-0.185-0.047-0.332-0.113-0.432-0.168-0.050-0.027-0.090-0.053-0.117-0.070-0.037-0.023-0.047-0.033-0.045-0.030l-0.008-0.008c-0.145-0.12-0.165-0.335-0.045-0.48 0.095-0.123 0.245-0.16 0.377-0.113z"></path>
<path fill="#404040" style="fill: var(--color2, #404040)" d="M10.502 14.768c0.172 0.115 0.408 0.115 0.6 0.045s0.405-0.443 0.405-0.443 0.057 0.377 0.217 0.668c0.16-0.245 0.268-0.603 0.268-0.603s0.213 0.502 0.457 0.6c0.002-0.227 0.010-0.685 0.010-0.685s0.375 0.473 0.655 0.557c-0.037-0.3-0.063-0.47-0.072-0.72 0.34 0.277 0.537 0.365 0.845 0.37-0.113-0.238-0.387-0.643-0.387-0.643s0.435 0.295 0.935 0.203c-0.205-0.255-0.455-0.385-0.66-0.637 0.277 0.102 0.998 0.008 0.998 0.008s-0.96-0.188-1.035-0.565c0.068 0.063-0.617 0.713-0.688 0.758-0.283 0.18-0.598 0.307-0.925 0.375-0.213 0.045-0.777-0.158-0.908-0.043-0.102 0.092-0.047 0.235-0.245 0.443-0.117 0.12-0.303 0.295-0.47 0.313z"></path>
</symbol>
</defs>
</svg>
